<svg xmlns="http://www.w3.org/2000/svg" width="18" height="18" fill="none"><g clip-path="url(#a)"><path fill="#DC1154" d="M12.989.058c.913.042 1.544.176 2.128.402a4.02 4.02 0 0 1 1.467.956c.422.413.749.914.956 1.467.226.584.36 1.215.402 2.128C17.994 6.144 18 6.543 18 9s-.006 2.856-.058 3.989c-.042.913-.176 1.544-.402 2.129a4.02 4.02 0 0 1-.956 1.466 4.018 4.018 0 0 1-1.467.956c-.584.226-1.215.36-2.129.402-1.132.052-1.53.058-3.988.058s-2.857-.006-3.989-.058c-.913-.042-1.545-.176-2.129-.402a4.02 4.02 0 0 1-1.466-.956 4.02 4.02 0 0 1-.955-1.467C.234 14.533.1 13.902.057 12.988.006 11.858 0 11.459 0 9s.006-2.857.058-3.989C.1 4.098.234 3.466.46 2.883a4.02 4.02 0 0 1 .956-1.467A4.02 4.02 0 0 1 2.882.461C3.467.234 4.098.1 5.012.057 6.141.006 6.542 0 9 0s2.857.006 3.989.058ZM9 2c-2.43 0-2.802.006-3.898.056-.695.031-1.112.12-1.495.269-.294.107-.56.28-.777.505a2.03 2.03 0 0 0-.505.777c-.149.382-.238.8-.27 1.495C2.006 6.198 2 6.57 2 9s.006 2.802.056 3.898c.031.695.12 1.112.269 1.495.127.326.262.534.505.777s.45.378.777.505c.382.148.8.238 1.495.27C6.2 15.994 6.571 16 9 16c2.43 0 2.801-.005 3.898-.056.695-.031 1.112-.12 1.495-.269.294-.107.56-.28.777-.505a2.03 2.03 0 0 0 .505-.777c.148-.382.238-.8.27-1.495C15.994 11.8 16 11.429 16 9c0-2.43-.005-2.801-.056-3.898-.031-.695-.12-1.112-.269-1.495a2.032 2.032 0 0 0-.505-.777 2.03 2.03 0 0 0-.777-.505c-.383-.149-.8-.238-1.496-.27C11.801 2.006 11.429 2 8.999 2H9Zm0 11.666a4.666 4.666 0 1 1 0-9.332 4.666 4.666 0 0 1 0 9.332Zm0-1.999a2.667 2.667 0 1 0 0-5.335 2.667 2.667 0 0 0 0 5.335Zm4.666-6.334a1 1 0 1 1 0-2 1 1 0 0 1 0 2Z"/></g><defs><clipPath id="a"><path fill="#fff" d="M0 0h18v18H0z"/></clipPath></defs></svg>