<svg width="15" height="16" viewBox="0 0 15 16" fill="none" xmlns="http://www.w3.org/2000/svg">
<g clip-path="url(#clip0_16_49)">
<path d="M7.62314 4.40623C5.63564 4.40623 4.03252 6.00935 4.03252 7.99685C4.03252 9.98435 5.63564 11.5875 7.62314 11.5875C9.61064 11.5875 11.2138 9.98435 11.2138 7.99685C11.2138 6.00935 9.61064 4.40623 7.62314 4.40623ZM7.62314 10.3312C6.33877 10.3312 5.28877 9.28435 5.28877 7.99685C5.28877 6.70935 6.33564 5.66248 7.62314 5.66248C8.91064 5.66248 9.95752 6.70935 9.95752 7.99685C9.95752 9.28435 8.90752 10.3312 7.62314 10.3312ZM12.1981 4.25935C12.1981 4.72498 11.8231 5.09685 11.3606 5.09685C10.895 5.09685 10.5231 4.72185 10.5231 4.25935C10.5231 3.79685 10.8981 3.42185 11.3606 3.42185C11.8231 3.42185 12.1981 3.79685 12.1981 4.25935ZM14.5763 5.10935C14.5231 3.98748 14.2669 2.99373 13.445 2.17498C12.6263 1.35623 11.6325 1.09998 10.5106 1.04373C9.35439 0.978101 5.88877 0.978101 4.73252 1.04373C3.61377 1.09685 2.62002 1.3531 1.79814 2.17185C0.97627 2.9906 0.723145 3.98435 0.666895 5.10623C0.60127 6.26248 0.60127 9.7281 0.666895 10.8843C0.72002 12.0062 0.97627 13 1.79814 13.8187C2.62002 14.6375 3.61064 14.8937 4.73252 14.95C5.88877 15.0156 9.35439 15.0156 10.5106 14.95C11.6325 14.8969 12.6263 14.6406 13.445 13.8187C14.2638 13 14.52 12.0062 14.5763 10.8843C14.6419 9.7281 14.6419 6.2656 14.5763 5.10935ZM13.0825 12.125C12.8388 12.7375 12.3669 13.2094 11.7513 13.4562C10.8294 13.8219 8.64189 13.7375 7.62314 13.7375C6.60439 13.7375 4.41377 13.8187 3.49502 13.4562C2.88252 13.2125 2.41064 12.7406 2.16377 12.125C1.79814 11.2031 1.88252 9.0156 1.88252 7.99685C1.88252 6.9781 1.80127 4.78748 2.16377 3.86873C2.40752 3.25623 2.87939 2.78435 3.49502 2.53748C4.41689 2.17185 6.60439 2.25623 7.62314 2.25623C8.64189 2.25623 10.8325 2.17498 11.7513 2.53748C12.3638 2.78123 12.8356 3.2531 13.0825 3.86873C13.4481 4.7906 13.3638 6.9781 13.3638 7.99685C13.3638 9.0156 13.4481 11.2062 13.0825 12.125Z" fill="#DC1154"/>
</g>
<defs>
<clipPath id="clip0_16_49">
<rect width="14" height="16" fill="white" transform="translate(0.619995)"/>
</clipPath>
</defs>
</svg>
