<svg width="16" height="16" viewBox="0 0 16 16" fill="none" xmlns="http://www.w3.org/2000/svg">
<g clip-path="url(#clip0_15_34)">
<path d="M8 16C12.4183 16 16 12.4183 16 8C16 3.58172 12.4183 0 8 0C3.58172 0 0 3.58172 0 8C0 12.4183 3.58172 16 8 16Z" fill="#FF4500"/>
<path d="M13.3218 8.0763C13.3218 7.4278 12.7974 6.91274 12.1583 6.91274C11.8564 6.91233 11.566 7.02851 11.3477 7.23705C10.5465 6.66474 9.44966 6.29287 8.22891 6.24518L8.76291 3.74637L10.4987 4.11824C10.5179 4.55699 10.8802 4.90993 11.3286 4.90993C11.7863 4.90993 12.1583 4.53805 12.1583 4.08005C12.1583 3.6223 11.7864 3.25037 11.3286 3.25037C11.0043 3.25037 10.7181 3.44112 10.5846 3.71774L8.6486 3.30762C8.59135 3.29799 8.5341 3.30762 8.49591 3.33624C8.44823 3.36487 8.41966 3.41249 8.41023 3.46974L7.81873 6.25462C6.57891 6.29287 5.46298 6.66474 4.65235 7.24662C4.43401 7.03808 4.14358 6.92192 3.84166 6.92237C3.1931 6.92237 2.6781 7.4468 2.6781 8.08593C2.6781 8.56274 2.96416 8.96324 3.36485 9.14462C3.34539 9.26123 3.33582 9.37927 3.33623 9.49749C3.33623 11.2904 5.42498 12.7497 8.00004 12.7497C10.5752 12.7497 12.6639 11.3 12.6639 9.49749C12.6638 9.37929 12.6543 9.26128 12.6353 9.14462C13.0358 8.96324 13.3218 8.55312 13.3218 8.0763ZM5.32948 8.90599C5.32948 8.44824 5.70135 8.0763 6.15935 8.0763C6.6171 8.0763 6.98904 8.44818 6.98904 8.90599C6.98904 9.3638 6.61716 9.73587 6.15935 9.73587C5.70141 9.74524 5.32948 9.3638 5.32948 8.90599ZM9.97429 11.1092C9.40204 11.6815 8.31473 11.7197 8.00004 11.7197C7.67579 11.7197 6.58854 11.6719 6.02566 11.1092C5.93998 11.0234 5.93998 10.8898 6.02566 10.804C6.11154 10.7183 6.24504 10.7183 6.33091 10.804C6.69341 11.1665 7.45641 11.2904 8.00004 11.2904C8.54373 11.2904 9.31616 11.1664 9.66904 10.804C9.75491 10.7183 9.88841 10.7183 9.97429 10.804C10.0505 10.8898 10.0505 11.0234 9.97429 11.1092ZM9.8216 9.7453C9.36379 9.7453 8.99191 9.37343 8.99191 8.91562C8.99191 8.4578 9.36379 8.08593 9.8216 8.08593C10.2795 8.08593 10.6514 8.4578 10.6514 8.91562C10.6514 9.36374 10.2795 9.7453 9.8216 9.7453Z" fill="white"/>
</g>
<defs>
<clipPath id="clip0_15_34">
<rect width="16" height="16" fill="white"/>
</clipPath>
</defs>
</svg>
