<svg xmlns="http://www.w3.org/2000/svg" width="18" height="18" fill="none"><g clip-path="url(#a)"><path fill="#FF4500" d="M9 18A9 9 0 1 0 9 0a9 9 0 0 0 0 18Z"/><path fill="#fff" d="M14.987 9.086c0-.73-.59-1.31-1.309-1.31-.34 0-.666.131-.912.366-.901-.644-2.135-1.063-3.508-1.116l.6-2.811 1.953.418a.933.933 0 1 0 .934-.976.933.933 0 0 0-.837.525L9.73 3.721a.228.228 0 0 0-.172.032.208.208 0 0 0-.096.15l-.666 3.133c-1.395.043-2.65.462-3.562 1.116a1.318 1.318 0 0 0-.912-.364 1.307 1.307 0 0 0-.536 2.5 2.363 2.363 0 0 0-.033.397c0 2.017 2.35 3.658 5.247 3.658s5.247-1.63 5.247-3.658c0-.133-.01-.266-.032-.397.45-.204.772-.666.772-1.202Zm-8.991.933a.934.934 0 1 1 .933.934.928.928 0 0 1-.933-.934Zm5.225 2.479c-.644.644-1.867.687-2.22.687-.366 0-1.589-.054-2.222-.687a.24.24 0 0 1 0-.344.24.24 0 0 1 .343 0c.408.408 1.267.548 1.878.548.612 0 1.48-.14 1.878-.548a.24.24 0 0 1 .343 0 .261.261 0 0 1 0 .344Zm-.172-1.535a.934.934 0 1 1 .934-.933.941.941 0 0 1-.934.933Z"/></g><defs><clipPath id="a"><path fill="#fff" d="M0 0h18v18H0z"/></clipPath></defs></svg>