<svg width="15" height="16" viewBox="0 0 15 16" fill="none" xmlns="http://www.w3.org/2000/svg">
<g clip-path="url(#clip0_16_39)">
<path d="M11.0702 5.76119C12.1007 6.49746 13.3632 6.93068 14.7267 6.93068V4.30833C14.4686 4.30839 14.2112 4.28146 13.9588 4.228V6.29217C12.5954 6.29217 11.3331 5.85901 10.3024 5.12279V10.4743C10.3024 13.1514 8.13103 15.3215 5.45274 15.3215C4.4534 15.3215 3.52452 15.0195 2.75293 14.5016C3.63359 15.4016 4.86173 15.9599 6.22041 15.9599C8.89892 15.9599 11.0703 13.7899 11.0703 11.1126V5.76119H11.0702ZM12.0175 3.11556C11.4909 2.5405 11.145 1.79732 11.0702 0.975697V0.638428H10.3426C10.5257 1.68268 11.1506 2.57481 12.0175 3.11556ZM4.44694 12.4473C4.1527 12.0617 3.99365 11.59 3.99436 11.105C3.99436 9.88058 4.98752 8.88781 6.21285 8.88781C6.44116 8.88769 6.66813 8.92273 6.88578 8.9917V6.3107C6.63144 6.27589 6.37478 6.26105 6.11823 6.26651V8.35324C5.90048 8.28422 5.67338 8.2492 5.44496 8.24941C4.21969 8.24941 3.22658 9.24207 3.22658 10.4666C3.22658 11.3325 3.72297 12.0821 4.44694 12.4473Z" fill="#FF004F"/>
<path d="M10.3024 5.12273C11.3332 5.85895 12.5953 6.29211 13.9588 6.29211V4.22794C13.1977 4.0659 12.524 3.66844 12.0175 3.11556C11.1504 2.57476 10.5257 1.68262 10.3425 0.638428H8.4312V11.1125C8.42684 12.3336 7.43539 13.3223 6.21271 13.3223C5.49227 13.3223 4.85216 12.9791 4.44681 12.4473C3.72295 12.0821 3.22651 11.3324 3.22651 10.4667C3.22651 9.24223 4.21961 8.24946 5.44488 8.24946C5.67964 8.24946 5.9059 8.28599 6.11815 8.3533V6.26657C3.48687 6.32091 1.37073 8.46977 1.37073 11.1126C1.37073 12.4319 1.89768 13.6278 2.75296 14.5017C3.52455 15.0195 4.45338 15.3216 5.45277 15.3216C8.13111 15.3216 10.3024 13.1514 10.3024 10.4743V5.12279L10.3024 5.12273Z" fill="black"/>
<path d="M13.9588 4.22786V3.66985C13.2725 3.67089 12.5997 3.4788 12.0175 3.11553C12.5329 3.67951 13.2116 4.06843 13.9588 4.22797V4.22786ZM10.3425 0.638345C10.325 0.538571 10.3116 0.43813 10.3023 0.337269V0H7.66321V10.4742C7.65902 11.6952 6.66757 12.6839 5.44484 12.6839C5.0982 12.6844 4.75631 12.6034 4.44677 12.4473C4.85212 12.979 5.49223 13.3222 6.21267 13.3222C7.43529 13.3222 8.42685 12.3336 8.43115 11.1126V0.6384H10.3425V0.638345ZM6.11827 6.26648V5.67233C5.89774 5.64219 5.67542 5.62711 5.45284 5.6272C2.77422 5.6272 0.602905 7.79735 0.602905 10.4742C0.602905 12.1525 1.45626 13.6316 2.75303 14.5016C1.89775 13.6278 1.37079 12.4317 1.37079 11.1125C1.37079 8.46974 3.48688 6.32083 6.11827 6.26648Z" fill="#00F2EA"/>
</g>
<defs>
<clipPath id="clip0_16_39">
<rect width="14.13" height="16" fill="white" transform="translate(0.599976)"/>
</clipPath>
</defs>
</svg>
