<svg xmlns="http://www.w3.org/2000/svg" width="16" height="18" fill="none"><g clip-path="url(#a)"><path fill="#FF004F" d="M11.776 6.481a7.052 7.052 0 0 0 4.113 1.316v-2.95c-.29 0-.58-.03-.864-.09v2.322a7.053 7.053 0 0 1-4.113-1.316v6.02a5.454 5.454 0 0 1-8.493 4.531 5.455 5.455 0 0 0 9.357-3.813v-6.02Zm1.066-2.976a4.111 4.111 0 0 1-1.066-2.407v-.38h-.819a4.13 4.13 0 0 0 1.885 2.787ZM4.325 14.003a2.495 2.495 0 0 1 2.744-3.887V7.099a5.504 5.504 0 0 0-.864-.05v2.348a2.5 2.5 0 0 0-3.253 2.378c0 .974.558 1.817 1.373 2.228Z"/><path fill="#000" d="M10.912 5.763a7.053 7.053 0 0 0 4.113 1.316V4.756a4.13 4.13 0 0 1-2.183-1.251A4.13 4.13 0 0 1 10.957.718h-2.15v11.784a2.495 2.495 0 0 1-4.482 1.501 2.494 2.494 0 0 1 1.88-4.606V7.05a5.454 5.454 0 0 0-3.786 9.264 5.455 5.455 0 0 0 8.493-4.53V5.763Z"/><path fill="#00F2EA" d="M15.025 4.756V4.13a4.114 4.114 0 0 1-2.184-.624 4.126 4.126 0 0 0 2.184 1.251ZM10.957.718a4.24 4.24 0 0 1-.045-.339V0h-2.97v11.784a2.495 2.495 0 0 1-3.618 2.22 2.495 2.495 0 0 0 4.482-1.502V.718h2.151ZM6.205 7.05V6.38a5.455 5.455 0 0 0-3.786 9.933A5.454 5.454 0 0 1 6.205 7.05Z"/></g><defs><clipPath id="a"><path fill="#fff" d="M0 0h15.89v18H0z"/></clipPath></defs></svg>