<svg xmlns="http://www.w3.org/2000/svg" width="18" height="18" fill="none"><path fill="#52B6E9" d="M16.15 5.334c.011.16.011.32.011.48 0 4.876-3.712 10.496-10.496 10.496-2.09 0-4.032-.606-5.665-1.656.297.034.582.045.89.045a7.388 7.388 0 0 0 4.58-1.576 3.696 3.696 0 0 1-3.448-2.558c.228.034.456.057.696.057.331 0 .663-.046.971-.126a3.69 3.69 0 0 1-2.958-3.62V6.83a3.715 3.715 0 0 0 1.667.468A3.686 3.686 0 0 1 .754 4.226c0-.685.182-1.313.502-1.862a10.486 10.486 0 0 0 7.607 3.86 4.165 4.165 0 0 1-.091-.844 3.687 3.687 0 0 1 3.689-3.69 3.68 3.68 0 0 1 2.695 1.165 7.262 7.262 0 0 0 2.341-.89 3.679 3.679 0 0 1-1.621 2.033A7.395 7.395 0 0 0 18 3.426a7.928 7.928 0 0 1-1.85 1.908Z"/></svg>