<svg width="20" height="16" viewBox="0 0 20 16" fill="none" xmlns="http://www.w3.org/2000/svg">
<g clip-path="url(#clip0_16_37)">
<path d="M19.5991 1.94839C18.8652 2.2735 18.0868 2.4869 17.2897 2.5815C18.1199 2.08389 18.7574 1.29591 19.0576 0.357036C18.2683 0.825389 17.4048 1.15537 16.5044 1.33273C15.7709 0.551333 14.726 0.0629883 13.5695 0.0629883C11.349 0.0629883 9.54861 1.86326 9.54861 4.08366C9.54861 4.39884 9.58421 4.70567 9.65273 5.00002C6.3111 4.83229 3.34842 3.2316 1.36526 0.798988C1.01923 1.39283 0.820957 2.08358 0.820957 2.82035C0.820957 4.21533 1.53085 5.44595 2.60967 6.16703C1.97116 6.14703 1.3467 5.97457 0.788422 5.66406C0.788192 5.6809 0.788192 5.69774 0.788192 5.71466C0.788192 7.66276 2.17414 9.28787 4.01345 9.65725C3.42137 9.81827 2.80031 9.84184 2.19772 9.72615C2.70934 11.3235 4.19428 12.486 5.95367 12.5185C4.57759 13.5968 2.84385 14.2397 0.960134 14.2397C0.635541 14.2397 0.315541 14.2206 0.000976562 14.1835C1.78034 15.3243 3.8938 15.99 6.16442 15.99C13.5602 15.99 17.6043 9.86318 17.6043 4.54995C17.6043 4.37556 17.6005 4.20217 17.5927 4.02976C18.3799 3.46072 19.0593 2.7559 19.5991 1.94839Z" fill="#55ACEE"/>
</g>
<defs>
<clipPath id="clip0_16_37">
<rect width="19.6" height="16" fill="white"/>
</clipPath>
</defs>
</svg>
