<svg xmlns="http://www.w3.org/2000/svg" width="30" height="26" fill="none"><path fill="#F7DEA2" d="M15.03 0 0 7.099l15.013 7.623L15.03 0Z"/><path fill="#F7DEA2" d="M0 7.099v10.494l15 7.592.013-10.463L0 7.1Z"/><path fill="#303135" d="M0 7.099v10.494l15 7.592.013-10.463L0 7.1Z"/><path fill="#F7DEA2" d="M14.97 0 30 7.099l-15.013 7.623L14.97 0Z"/><path fill="#F7DEA2" d="M30 7.099v10.494l-15 7.592-.013-10.463L30 7.1Z"/><path fill="#303135" d="M30 7.099v10.494l-15 7.592-.013-10.463L30 7.1Z"/><path fill="#D9D9D9" fill-rule="evenodd" d="m1.667 9.753 4.413 2.13v.957l.895.4v4.445l.494.216v2.192l-2.778-1.328v-.555l-3.055-1.512v-.834l-.864-.432v-5.216l.895.401v-.864Zm1.42 5.833v-3.333l1.573.833v3.241l-1.574-.74Z" clip-rule="evenodd"/><path fill="#D9D9D9" d="M8.704 13.21v4.29l3.21 1.543v.834l-3.21-1.605v2.284l5.494 2.747v-4.846l-3.149-1.543v-.71l3.149 1.543v-1.852L8.704 13.21ZM15.926 16.204v7.13l2.315-1.081v-3.086l.308-.155v.772l1.482-.71v-.772l.34-.154v3.056l2.283-1.08v-7.161l-2.284 1.08V15l-.864.401v.803l-.308.123v-.772l-.957.463v-.926l-2.315 1.112Z"/><path fill="#D9D9D9" fill-rule="evenodd" d="M23.704 12.377v7.222l2.407-1.142v-2.13l3.117-1.543v-5l-5.524 2.592Zm2.407 2.407v-1.76l.803-.431v1.79l-.803.4Z" clip-rule="evenodd"/><path fill="#000" d="m11.914 9.074-2.16 1.05 2.252 1.172 2.192-1.08-2.284-1.142ZM14.198 10.216l2.376 1.08 6.42-3.148-2.253-1.142-6.543 3.21ZM20.74 7.006l2.161-1.018-2.284-1.204-2.19 1.111 2.314 1.111ZM13.766 3.611l-2.16 1.08 2.345 1.142 2.098-1.05-2.283-1.172ZM9.383 5.74 7.315 6.79l2.222 1.142 2.068-1.018L9.383 5.74Z"/></svg>